<?xml version="1.0" standalone="no"?>
<!DOCTYPE svg PUBLIC "-//W3C//DTD SVG 20010904//EN"
 "http://www.w3.org/TR/2001/REC-SVG-20010904/DTD/svg10.dtd">
<svg version="1.0" xmlns="http://www.w3.org/2000/svg"
 width="499.000000pt" height="499.000000pt" viewBox="0 0 499.000000 499.000000"
 preserveAspectRatio="xMidYMid meet">
<metadata>
Created by potrace 1.11, written by Peter Selinger 2001-2013
</metadata>
<g transform="translate(0.000000,499.000000) scale(0.100000,-0.100000)"
fill="#000000" stroke="none">
<path d="M16 4083 c9 -21 26 -63 39 -93 12 -30 52 -121 89 -203 36 -81 66
-149 66 -151 0 -2 15 -37 34 -78 19 -40 96 -215 171 -388 76 -173 148 -337
160 -365 13 -27 71 -160 130 -295 58 -135 115 -263 125 -285 36 -77 240 -547
240 -552 0 -5 -301 -694 -331 -756 l-18 -38 780 2 c429 1 781 4 783 8 2 3 -36
96 -85 206 -49 109 -89 205 -89 212 0 7 11 36 24 65 13 29 40 88 60 131 20 44
36 81 36 83 0 2 16 38 35 80 19 41 35 77 35 79 0 2 13 32 29 67 56 123 81 179
107 241 14 34 33 75 41 91 l15 29 35 -79 c19 -43 43 -98 54 -121 32 -71 60
-135 81 -183 11 -25 25 -58 33 -75 108 -241 175 -399 175 -409 0 -6 -40 -102
-89 -211 -48 -110 -87 -203 -85 -206 5 -8 1564 -12 1564 -4 0 6 -186 435 -255
590 -13 28 -37 83 -55 124 l-32 74 162 371 c90 204 178 404 196 444 19 41 34
76 34 78 0 3 11 29 24 57 14 29 96 216 184 417 136 311 321 731 367 835 7 17
34 76 59 133 25 57 46 106 46 108 0 2 -158 3 -351 2 l-352 -3 -156 -356 c-86
-195 -166 -378 -178 -405 -142 -327 -280 -641 -304 -692 l-29 -63 -55 3 -56 3
-83 190 c-46 105 -173 393 -281 640 -109 248 -209 477 -224 510 -15 33 -38 86
-52 117 l-24 58 -350 0 -350 0 -149 -343 c-82 -188 -160 -364 -172 -392 -12
-27 -41 -93 -64 -145 -23 -52 -48 -108 -56 -125 -7 -16 -60 -138 -118 -270
l-104 -240 -58 0 -59 0 -136 310 c-75 171 -207 472 -294 670 -86 198 -166 380
-178 405 -11 25 -28 64 -38 88 l-18 42 -351 0 -350 0 16 -37z m2828 -1563
l283 -645 -31 -73 -30 -73 -17 38 c-10 21 -31 67 -47 103 -16 36 -60 135 -97
220 -37 85 -78 178 -91 205 -13 28 -48 106 -78 175 -30 68 -61 127 -70 130
-11 4 -326 5 -357 1 -5 -1 -44 -82 -76 -161 -8 -19 -18 -42 -23 -51 -4 -9 -70
-155 -145 -325 -75 -170 -140 -313 -144 -317 -5 -5 -20 20 -35 55 l-27 63 39
90 c22 50 113 257 202 460 89 204 171 390 182 415 11 25 45 101 75 170 30 69
66 150 80 180 14 30 32 73 41 95 l16 40 34 -75 c18 -41 161 -365 316 -720z"/>
</g>
</svg>
